<svg width="105" height="24" viewBox="0 0 105 24" fill="none" xmlns="http://www.w3.org/2000/svg">
<g clip-path="url(#clip0_394_970)">
<path fill-rule="evenodd" clip-rule="evenodd" d="M4.6087 14.1912C5.57343 13.9609 6.74147 13.8261 8 13.8261C9.25853 13.8261 10.4266 13.9609 11.3913 14.1912C12.3048 14.4093 13.3322 14.9223 13.7854 15.2784L8.28287 6.45363C8.15237 6.24434 7.84763 6.24434 7.71713 6.45363L2.21458 15.2784C2.66777 14.9223 3.6952 14.4093 4.6087 14.1912Z" fill="#141414"/>
<path fill-rule="evenodd" clip-rule="evenodd" d="M13.3327 15.9213C13.3315 15.9154 13.3292 15.9052 13.3249 15.8902C13.3145 15.8534 13.2983 15.8086 13.2782 15.7608C13.2723 15.7468 13.2663 15.7331 13.2604 15.7201C12.8368 15.4296 11.9929 15.0202 11.2365 14.8396C10.3292 14.623 9.21377 14.4928 8 14.4928C6.78623 14.4928 5.67083 14.623 4.7635 14.8396C4.0004 15.0218 3.14835 15.4368 2.72846 15.7277C2.72461 15.7358 2.72072 15.7443 2.71684 15.7531C2.69973 15.7917 2.68574 15.8295 2.67659 15.863C2.66785 15.8949 2.6668 15.9111 2.66668 15.9129C2.66667 15.9131 2.66668 15.913 2.66668 15.9129C2.66668 15.9214 2.67013 16.0256 2.89495 16.2105C3.11515 16.3915 3.47407 16.5844 3.97637 16.7591C4.97473 17.1063 6.3973 17.3333 8 17.3333C9.6027 17.3333 11.0253 17.1063 12.0236 16.7591C12.5259 16.5844 12.8848 16.3915 13.105 16.2105C13.3002 16.05 13.3286 15.9504 13.3327 15.9213ZM1.65059 14.9229L7.15143 6.10089C7.54293 5.47303 8.45707 5.47303 8.84857 6.10089L14.3511 14.9257C14.357 14.9351 14.3626 14.9446 14.368 14.9543L13.7854 15.2784C14.368 14.9543 14.3679 14.9542 14.368 14.9543L14.3684 14.955L14.3688 14.9558L14.37 14.958L14.3733 14.9639C14.3759 14.9687 14.3792 14.9749 14.3832 14.9824C14.3913 14.9975 14.4021 15.0182 14.4147 15.0433C14.4397 15.0931 14.4732 15.163 14.5072 15.2439C14.5634 15.3774 14.6667 15.6437 14.6667 15.913C14.6667 16.4809 14.3343 16.9258 13.9519 17.2403C13.5649 17.5586 13.0451 17.8155 12.4617 18.0184C11.2885 18.4265 9.711 18.6667 8 18.6667C6.289 18.6667 4.71153 18.4265 3.53833 18.0184C2.95488 17.8155 2.4351 17.5586 2.04806 17.2403C1.66565 16.9258 1.33333 16.4809 1.33333 15.913C1.33333 15.6242 1.43088 15.3641 1.49774 15.2131C1.53458 15.1299 1.57116 15.0601 1.59896 15.0104C1.61299 14.9852 1.62516 14.9645 1.6345 14.949C1.63918 14.9413 1.64318 14.9348 1.64639 14.9296L1.64887 14.9257L1.65059 14.9229ZM11.9956 13.668L8 7.25999L4.00437 13.668C4.15537 13.6203 4.30597 13.5781 4.4539 13.5427C5.47603 13.2987 6.6967 13.1594 8 13.1594C9.3033 13.1594 10.524 13.2987 11.5461 13.5427C11.694 13.5781 11.8446 13.6203 11.9956 13.668Z" fill="#141414"/>
</g>
<path d="M38.228 18.662C36.548 18.662 35.204 18.29 34.196 17.546C33.188 16.79 32.6 15.728 32.432 14.36H35.096C35.18 15.056 35.516 15.608 36.104 16.016C36.692 16.412 37.442 16.61 38.354 16.61C39.098 16.61 39.668 16.478 40.064 16.214C40.472 15.95 40.676 15.596 40.676 15.152C40.676 14.732 40.556 14.396 40.316 14.144C40.076 13.88 39.662 13.67 39.074 13.514L36.662 12.848C35.426 12.5 34.52 12.026 33.944 11.426C33.38 10.814 33.098 10.052 33.098 9.14C33.098 8.36 33.296 7.688 33.692 7.124C34.1 6.548 34.67 6.11 35.402 5.81C36.134 5.498 36.992 5.342 37.976 5.342C39.488 5.342 40.694 5.702 41.594 6.422C42.494 7.13 43.004 8.072 43.124 9.248H40.46C40.34 8.612 40.046 8.144 39.578 7.844C39.122 7.544 38.534 7.394 37.814 7.394C37.19 7.394 36.692 7.514 36.32 7.754C35.948 7.994 35.762 8.318 35.762 8.726C35.762 9.038 35.864 9.326 36.068 9.59C36.272 9.842 36.698 10.058 37.346 10.238L39.758 10.904C41.03 11.252 41.942 11.732 42.494 12.344C43.058 12.944 43.34 13.706 43.34 14.63C43.34 15.926 42.89 16.922 41.99 17.618C41.09 18.314 39.836 18.662 38.228 18.662ZM44.8222 18.5V5.54H47.5222V18.5H44.8222ZM51.2122 18.5V12.812C51.2122 12.308 51.0802 11.93 50.8162 11.678C50.5642 11.426 50.1922 11.3 49.7002 11.3C49.2802 11.3 48.9022 11.396 48.5662 11.588C48.2422 11.78 47.9842 12.044 47.7922 12.38C47.6122 12.716 47.5222 13.112 47.5222 13.568L47.2882 11.354C47.5882 10.682 48.0262 10.148 48.6022 9.752C49.1902 9.344 49.9102 9.14 50.7622 9.14C51.7822 9.14 52.5622 9.428 53.1022 10.004C53.6422 10.568 53.9122 11.33 53.9122 12.29V18.5H51.2122ZM55.8613 18.5V9.32H58.5613V18.5H55.8613ZM55.7713 8.096V5.18H58.6513V8.096H55.7713ZM60.7128 18.5V9.32H63.3588V11.48H63.4128V18.5H60.7128ZM67.1028 18.5V12.812C67.1028 12.308 66.9708 11.93 66.7068 11.678C66.4548 11.426 66.0828 11.3 65.5908 11.3C65.1708 11.3 64.7928 11.396 64.4568 11.588C64.1328 11.78 63.8748 12.044 63.6828 12.38C63.5028 12.716 63.4128 13.112 63.4128 13.568L63.1788 11.354C63.4788 10.682 63.9168 10.148 64.4928 9.752C65.0808 9.344 65.8008 9.14 66.6528 9.14C67.6728 9.14 68.4528 9.428 68.9928 10.004C69.5328 10.568 69.8028 11.33 69.8028 12.29V18.5H67.1028ZM76.0522 22.37C74.7802 22.37 73.7422 22.1 72.9382 21.56C72.1462 21.02 71.6782 20.288 71.5342 19.364H74.0902C74.1862 19.592 74.3902 19.766 74.7022 19.886C75.0262 20.006 75.4342 20.066 75.9262 20.066C76.7422 20.066 77.3362 19.91 77.7082 19.598C78.0802 19.286 78.2662 18.8 78.2662 18.14V16.142L78.4102 16.178C78.2902 16.85 77.9422 17.384 77.3662 17.78C76.7902 18.164 76.0762 18.356 75.2242 18.356C74.4082 18.356 73.6942 18.17 73.0822 17.798C72.4822 17.414 72.0142 16.88 71.6782 16.196C71.3422 15.512 71.1742 14.708 71.1742 13.784C71.1742 12.848 71.3482 12.032 71.6962 11.336C72.0442 10.64 72.5302 10.1 73.1542 9.716C73.7902 9.332 74.5282 9.14 75.3682 9.14C76.2322 9.14 76.9342 9.344 77.4742 9.752C78.0262 10.16 78.3502 10.718 78.4462 11.426L78.3202 11.444V9.32H80.9662V18.104C80.9662 19.424 80.5282 20.462 79.6522 21.218C78.7762 21.986 77.5762 22.37 76.0522 22.37ZM76.1602 16.286C76.7962 16.286 77.3122 16.07 77.7082 15.638C78.1042 15.194 78.3022 14.564 78.3022 13.748C78.3022 12.932 78.0982 12.308 77.6902 11.876C77.2942 11.432 76.7722 11.21 76.1242 11.21C75.5002 11.21 74.9842 11.432 74.5762 11.876C74.1802 12.32 73.9822 12.95 73.9822 13.766C73.9822 14.582 74.1802 15.206 74.5762 15.638C74.9842 16.07 75.5122 16.286 76.1602 16.286ZM88.9029 18.5C88.8309 18.236 88.7769 17.954 88.7409 17.654C88.7169 17.354 88.7049 17.006 88.7049 16.61H88.6329V12.272C88.6329 11.9 88.5069 11.612 88.2549 11.408C88.0149 11.192 87.6549 11.084 87.1749 11.084C86.7189 11.084 86.3529 11.162 86.0769 11.318C85.8129 11.474 85.6389 11.702 85.5549 12.002H82.9809C83.1009 11.174 83.5269 10.49 84.2589 9.95C84.9909 9.41 85.9929 9.14 87.2649 9.14C88.5849 9.14 89.5929 9.434 90.2889 10.022C90.9849 10.61 91.3329 11.456 91.3329 12.56V16.61C91.3329 16.91 91.3509 17.216 91.3869 17.528C91.4349 17.828 91.5069 18.152 91.6029 18.5H88.9029ZM85.6989 18.68C84.7869 18.68 84.0609 18.452 83.5209 17.996C82.9809 17.528 82.7109 16.91 82.7109 16.142C82.7109 15.29 83.0289 14.606 83.6649 14.09C84.3129 13.562 85.2129 13.22 86.3649 13.064L89.0469 12.686V14.252L86.8149 14.594C86.3349 14.666 85.9809 14.798 85.7529 14.99C85.5249 15.182 85.4109 15.446 85.4109 15.782C85.4109 16.082 85.5189 16.31 85.7349 16.466C85.9509 16.622 86.2389 16.7 86.5989 16.7C87.1629 16.7 87.6429 16.55 88.0389 16.25C88.4349 15.938 88.6329 15.578 88.6329 15.17L88.8849 16.61C88.6209 17.294 88.2189 17.81 87.6789 18.158C87.1389 18.506 86.4789 18.68 85.6989 18.68ZM93.4081 18.5V9.32H96.0541V11.48H96.1081V18.5H93.4081ZM96.1081 13.712L95.8741 11.534C96.0901 10.754 96.4441 10.16 96.9361 9.752C97.4281 9.344 98.0401 9.14 98.7721 9.14C99.0001 9.14 99.1681 9.164 99.2761 9.212V11.732C99.2161 11.708 99.1321 11.696 99.0241 11.696C98.9161 11.684 98.7841 11.678 98.6281 11.678C97.7641 11.678 97.1281 11.834 96.7201 12.146C96.3121 12.446 96.1081 12.968 96.1081 13.712ZM100.439 18.5V9.32H103.139V18.5H100.439ZM100.349 8.096V5.18H103.229V8.096H100.349Z" fill="#141414"/>
<defs>
<clipPath id="clip0_394_970">
<rect width="16" height="16" fill="white" transform="translate(0 4)"/>
</clipPath>
</defs>
</svg>
